<?xml version="1.0" encoding="iso-8859-1"?>
<!-- Generator: Adobe Illustrator 19.0.0, SVG Export Plug-In . SVG Version: 6.00 Build 0)  -->
<svg version="1.1" id="Capa_1" xmlns="http://www.w3.org/2000/svg" xmlns:xlink="http://www.w3.org/1999/xlink" x="0px" y="0px"
	 viewBox="0 0 512 512" style="enable-background:new 0 0 512 512;" xml:space="preserve">
<circle style="fill:#F7DC4D;" cx="256" cy="256" r="256"/>
<path style="fill:#E2A92B;" d="M213.398,129.882v62.939l-75.497,75.496c5.998,5.998,23.285,23.285,29.271,29.271v130.683
	l83.664,83.664c1.719,0.034,3.438,0.065,5.164,0.065c122.864,0,225.495-86.561,250.279-202.021L255.259,58.958l-56.391,56.392
	C207.016,123.499,205.221,121.704,213.398,129.882z"/>
<polygon style="fill:#FDF7D0;" points="297.119,207.084 213.398,207.084 213.398,105.87 255.259,70.349 297.119,105.87 "/>
<polygon style="fill:#ACACB2;" points="297.119,207.084 297.119,105.87 255.259,70.349 255.259,207.084 "/>
<polygon style="fill:#FDF7D0;" points="343.345,428.271 167.172,428.271 167.172,247.064 255.259,172.316 343.345,247.064 "/>
<polygon style="fill:#8A8A91;" points="255.259,172.315 255.259,428.271 343.345,428.271 343.345,247.063 "/>
<polygon style="fill:#E25F3F;" points="351.261,289.672 255.259,193.67 159.257,289.672 137.901,268.318 255.259,150.96 
	372.616,268.318 "/>
<polygon style="fill:#CC4929;" points="351.261,289.672 372.616,268.318 255.259,150.96 255.259,193.67 "/>
<polygon style="fill:#E25F3F;" points="300.26,126.741 255.259,81.738 210.257,126.741 198.868,115.35 255.259,58.958 
	311.65,115.35 "/>
<polygon style="fill:#CC4929;" points="300.26,126.741 311.65,115.35 255.259,58.958 255.259,81.738 "/>
<rect x="222.641" y="333.591" style="fill:#5D4E38;" width="65.236" height="94.68"/>
<rect x="255.259" y="333.591" style="fill:#534532;" width="32.618" height="94.68"/>
<g>
	<rect x="248.063" y="230.301" style="fill:#8A8A91;" width="14.387" height="78.024"/>
	<rect x="235.065" y="243.032" style="fill:#8A8A91;" width="40.396" height="14.387"/>
</g>
<polygon style="fill:#67676D;" points="262.452,230.301 255.259,230.301 255.259,308.325 262.452,308.325 262.452,257.416 
	275.456,257.416 275.456,243.028 262.452,243.028 "/>
<g>
</g>
<g>
</g>
<g>
</g>
<g>
</g>
<g>
</g>
<g>
</g>
<g>
</g>
<g>
</g>
<g>
</g>
<g>
</g>
<g>
</g>
<g>
</g>
<g>
</g>
<g>
</g>
<g>
</g>
</svg>
